<svg xmlns="http://www.w3.org/2000/svg" width="347.741" height="75.652" viewBox="0 0 347.741 75.652">
  <g id="Group_8" data-name="Group 8" transform="translate(-1468.636 -268)">
    <path id="Path_5" data-name="Path 5" d="M86.9,579l-2.469,4.262h56.378L138.339,579Z" transform="translate(1385.941 -240.61)" fill="#ca990d" stroke="#ca990d" stroke-miterlimit="10" stroke-width="2"/>
    <text id="GOLD_PILLAR" data-name="GOLD PILLAR" transform="translate(1550.098 320.559)" fill="#ca990d" font-size="39" font-family="Baskerville" letter-spacing="-0.005em"><tspan x="0" y="0">GOLD </tspan><tspan y="0" fill="#fff">PILLAR</tspan></text>
    <line id="Line_6" data-name="Line 6" x2="266.088" transform="translate(1550.289 335.888)" fill="none" stroke="#fff" stroke-miterlimit="10" stroke-width="7"/>
    <line id="Line_7" data-name="Line 7" x2="266.088" transform="translate(1550.289 280.401)" fill="none" stroke="#fff" stroke-miterlimit="10" stroke-width="7"/>
    <g id="Rectangle_19" data-name="Rectangle 19" transform="translate(1480.509 277.248)" fill="#ca990d" stroke="#ca990d" stroke-width="1">
      <rect width="8.407" height="55.488" stroke="none"/>
      <rect x="0.5" y="0.5" width="7.407" height="54.488" fill="none"/>
    </g>
    <g id="Rectangle_20" data-name="Rectangle 20" transform="translate(1498.164 277.248)" fill="#ca990d" stroke="#ca990d" stroke-width="1">
      <rect width="8.407" height="55.488" stroke="none"/>
      <rect x="0.5" y="0.5" width="7.407" height="54.488" fill="none"/>
    </g>
    <g id="Rectangle_21" data-name="Rectangle 21" transform="translate(1506.992 277.248)" fill="#ca990d" stroke="#ca990d" stroke-width="1">
      <rect width="8.407" height="55.488" stroke="none"/>
      <rect x="0.5" y="0.5" width="7.407" height="54.488" fill="none"/>
    </g>
    <g id="Rectangle_22" data-name="Rectangle 22" transform="translate(1489.336 277.248)" fill="#ca990d" stroke="#ca990d" stroke-width="1">
      <rect width="8.407" height="55.488" stroke="none"/>
      <rect x="0.5" y="0.5" width="7.407" height="54.488" fill="none"/>
    </g>
    <g id="Rectangle_23" data-name="Rectangle 23" transform="translate(1472.102 268)" fill="#ca990d" stroke="#ca990d" stroke-width="1">
      <rect width="52.545" height="4.204" stroke="none"/>
      <rect x="0.5" y="0.5" width="51.545" height="3.204" fill="none"/>
    </g>
    <g id="Rectangle_24" data-name="Rectangle 24" transform="translate(1477.987 272.624)" fill="#ca990d" stroke="#ca990d" stroke-width="1">
      <rect width="40.775" height="4.204" stroke="none"/>
      <rect x="0.5" y="0.5" width="39.775" height="3.204" fill="none"/>
    </g>
    <g id="Rectangle_25" data-name="Rectangle 25" transform="translate(1477.146 333.156)" fill="#ca990d" stroke="#ca990d" stroke-width="1">
      <rect width="40.775" height="4.204" stroke="none"/>
      <rect x="0.5" y="0.5" width="39.775" height="3.204" fill="none"/>
    </g>
  </g>
</svg>
