<?xml version="1.0" encoding="UTF-8" standalone="no"?>
<svg width="300px" height="149px" viewBox="0 0 300 149" version="1.1" xmlns="http://www.w3.org/2000/svg" xmlns:xlink="http://www.w3.org/1999/xlink">
    <!-- Generator: Sketch 39.1 (31720) - http://www.bohemiancoding.com/sketch -->
    <title>Illustration </title>
    <desc>Created with Sketch.</desc>
    <defs>
        <polyline id="path-1" points="0 0.415175053 299.797759 0.415175053 299.797759 148.148148 0 148.148148"></polyline>
        <polygon id="path-3" points="0 0.415175053 299.797759 0.415175053 299.797759 148.148148 0 148.148148"></polygon>
    </defs>
    <g id="Page-1" stroke="none" stroke-width="1" fill="none" fill-rule="evenodd">
        <g id="Check-your-email-1" transform="translate(-380.000000, -385.000000)">
            <g id="Illustration-" transform="translate(380.000000, 385.000000)">
                <g id="Illustration">
                    <path d="M97.8347854,135.956501 C92.3182381,135.956501 87.8303361,131.44181 87.8303361,125.891883 L87.8303361,60.5571991 C87.8303361,57.8468535 88.8956869,55.3008668 90.8307757,53.3875493 C91.2846688,52.9512102 134.900934,11.0288866 138.078186,7.47783407 C141.845857,3.26664415 146.653365,1.76625014 149.89597,1.76625014 C153.139023,1.76625014 157.94653,3.26664415 161.713754,7.47783407 C164.891453,11.0288866 208.507271,52.9512102 208.947736,53.3740403 C210.896253,55.3013171 211.961604,57.8473038 211.961604,60.5571991 L211.961604,125.891883 C211.961604,131.44181 207.473702,135.956501 201.957155,135.956501 L97.8347854,135.956501 Z" id="Fill-1" fill="#F2714C"></path>
                    <g id="Group-5">
                        <mask id="mask-2" fill="white">
                            <use xlink:href="#path-1"></use>
                        </mask>
                        <g id="Clip-4"></g>
                        <path d="M149.89606,0.415130024 C146.364288,0.415130024 141.142726,2.0330519 137.080069,6.57386018 C134.564409,9.38597321 105.129394,37.7777327 89.9168121,52.3971181 L89.9029357,52.410627 L89.8890593,52.424136 C87.6956901,54.5936733 86.4875465,57.4818867 86.4875465,60.5574243 L86.4875465,125.892109 C86.4875465,132.186378 91.5779536,137.307171 97.8348749,137.307171 L201.957244,137.307171 C208.214165,137.307171 213.304573,132.186378 213.304573,125.892109 L213.304573,60.5574243 C213.304573,57.4818867 212.096429,54.5936733 209.902612,52.424136 L209.889183,52.410627 L209.875307,52.3971181 C194.662277,37.7777327 165.22771,9.38597321 162.71205,6.57386018 C158.649393,2.0330519 153.427832,0.415130024 149.89606,0.415130024 M149.89606,3.11691996 C153.151646,3.11691996 157.46766,4.75060227 160.715636,8.38135765 C163.963613,12.012113 208.019896,54.3509625 208.019896,54.3509625 C209.621055,55.9342114 210.618814,58.1339187 210.618814,60.5574243 L210.618814,125.892109 C210.618814,130.684634 206.721332,134.605381 201.957244,134.605381 L97.8348749,134.605381 C93.0707875,134.605381 89.1733047,130.684634 89.1733047,125.892109 L89.1733047,60.5574243 C89.1733047,58.1339187 90.1706163,55.9342114 91.7722234,54.3509625 C91.7722234,54.3509625 135.828506,12.012113 139.076483,8.38135765 C142.32446,4.75060227 146.640473,3.11691996 149.89606,3.11691996" id="Fill-3" fill="#F48F3D" mask="url(#mask-2)"></path>
                    </g>
                    <mask id="mask-4" fill="white">
                        <use xlink:href="#path-3"></use>
                    </mask>
                    <g id="Clip-7"></g>
                    <polygon id="Fill-6" fill="#F7DC84" mask="url(#mask-4)" points="110.736049 10.6932343 199.798476 10.6932343 199.798476 128.109873 110.736049 128.109873"></polygon>
                    <path d="M201.141669,9.34197906 L198.455911,9.34197906 L112.079241,9.34197906 L109.393483,9.34197906 L109.393483,12.043769 L109.393483,126.759068 L109.393483,129.460858 L112.079241,129.460858 L198.455911,129.460858 L201.141669,129.460858 L201.141669,126.759068 L201.141669,12.043769 L201.141669,9.34197906 Z M198.455911,126.759068 L112.079241,126.759068 L112.079241,12.043769 L198.455911,12.043769 L198.455911,126.759068 Z" id="Fill-8" fill="#F48F3D" mask="url(#mask-4)"></path>
                    <polygon id="Fill-9" fill="#FFFFFF" mask="url(#mask-4)" points="105.364532 15.990994 194.42696 15.990994 194.42696 127.659124 105.364532 127.659124"></polygon>
                    <path d="M195.770152,14.640009 L193.084394,14.640009 L106.707725,14.640009 L104.021967,14.640009 L104.021967,17.3417989 L104.021967,126.308589 L104.021967,129.010379 L106.707725,129.010379 L193.084394,129.010379 L195.770152,129.010379 L195.770152,126.308589 L195.770152,17.3417989 L195.770152,14.640009 Z M193.084394,126.308589 L106.707725,126.308589 L106.707725,17.3417989 L193.084394,17.3417989 L193.084394,126.308589 Z" id="Fill-10" fill="#F48F3D" mask="url(#mask-4)"></path>
                    <path d="M178.860619,27.918496 L120.9315,27.918496 C120.189783,27.918496 119.588621,27.3137454 119.588621,26.567601 C119.588621,25.8214567 120.189783,25.2167061 120.9315,25.2167061 L178.860619,25.2167061 C179.602336,25.2167061 180.203498,25.8214567 180.203498,26.567601 C180.203498,27.3137454 179.602336,27.918496 178.860619,27.918496" id="Fill-11" fill="#F7DC84" mask="url(#mask-4)"></path>
                    <path d="M178.860619,34.0938422 L120.9315,34.0938422 C120.189783,34.0938422 119.588621,33.4890915 119.588621,32.7429472 C119.588621,31.9968029 120.189783,31.3920522 120.9315,31.3920522 L178.860619,31.3920522 C179.602336,31.3920522 180.203498,31.9968029 180.203498,32.7429472 C180.203498,33.4890915 179.602336,34.0938422 178.860619,34.0938422" id="Fill-12" fill="#F7DC84" mask="url(#mask-4)"></path>
                    <path d="M178.860619,40.2691433 L120.9315,40.2691433 C120.189783,40.2691433 119.588621,39.6643927 119.588621,38.9182483 C119.588621,38.172104 120.189783,37.5673534 120.9315,37.5673534 L178.860619,37.5673534 C179.602336,37.5673534 180.203498,38.172104 180.203498,38.9182483 C180.203498,39.6643927 179.602336,40.2691433 178.860619,40.2691433" id="Fill-13" fill="#F7DC84" mask="url(#mask-4)"></path>
                    <path d="M178.860619,46.4440392 L120.9315,46.4440392 C120.189783,46.4440392 119.588621,45.8392885 119.588621,45.0931442 C119.588621,44.3469999 120.189783,43.7422492 120.9315,43.7422492 L178.860619,43.7422492 C179.602336,43.7422492 180.203498,44.3469999 180.203498,45.0931442 C180.203498,45.8392885 179.602336,46.4440392 178.860619,46.4440392" id="Fill-14" fill="#F7DC84" mask="url(#mask-4)"></path>
                    <path d="M178.860619,52.6193853 L120.9315,52.6193853 C120.189783,52.6193853 119.588621,52.0146347 119.588621,51.2684904 C119.588621,50.5223461 120.189783,49.9175954 120.9315,49.9175954 L178.860619,49.9175954 C179.602336,49.9175954 180.203498,50.5223461 180.203498,51.2684904 C180.203498,52.0146347 179.602336,52.6193853 178.860619,52.6193853" id="Fill-15" fill="#F7DC84" mask="url(#mask-4)"></path>
                    <path d="M178.860619,58.7947315 L120.9315,58.7947315 C120.189783,58.7947315 119.588621,58.1899809 119.588621,57.4438365 C119.588621,56.6976922 120.189783,56.0929416 120.9315,56.0929416 L178.860619,56.0929416 C179.602336,56.0929416 180.203498,56.6976922 180.203498,57.4438365 C180.203498,58.1899809 179.602336,58.7947315 178.860619,58.7947315" id="Fill-16" fill="#F7DC84" mask="url(#mask-4)"></path>
                    <path d="M178.860619,64.9700326 L120.9315,64.9700326 C120.189783,64.9700326 119.588621,64.365282 119.588621,63.6191377 C119.588621,62.8729934 120.189783,62.2682427 120.9315,62.2682427 L178.860619,62.2682427 C179.602336,62.2682427 180.203498,62.8729934 180.203498,63.6191377 C180.203498,64.365282 179.602336,64.9700326 178.860619,64.9700326" id="Fill-17" fill="#F7DC84" mask="url(#mask-4)"></path>
                    <path d="M178.860619,71.1453788 L120.9315,71.1453788 C120.189783,71.1453788 119.588621,70.5406282 119.588621,69.7944838 C119.588621,69.0483395 120.189783,68.4435889 120.9315,68.4435889 L178.860619,68.4435889 C179.602336,68.4435889 180.203498,69.0483395 180.203498,69.7944838 C180.203498,70.5406282 179.602336,71.1453788 178.860619,71.1453788" id="Fill-18" fill="#F7DC84" mask="url(#mask-4)"></path>
                    <path d="M178.860619,77.3202747 L120.9315,77.3202747 C120.189783,77.3202747 119.588621,76.715524 119.588621,75.9693797 C119.588621,75.2232354 120.189783,74.6184847 120.9315,74.6184847 L178.860619,74.6184847 C179.602336,74.6184847 180.203498,75.2232354 180.203498,75.9693797 C180.203498,76.715524 179.602336,77.3202747 178.860619,77.3202747" id="Fill-19" fill="#F7DC84" mask="url(#mask-4)"></path>
                    <path d="M178.860619,83.4956208 L120.9315,83.4956208 C120.189783,83.4956208 119.588621,82.8908702 119.588621,82.1447259 C119.588621,81.3985816 120.189783,80.7938309 120.9315,80.7938309 L178.860619,80.7938309 C179.602336,80.7938309 180.203498,81.3985816 180.203498,82.1447259 C180.203498,82.8908702 179.602336,83.4956208 178.860619,83.4956208" id="Fill-20" fill="#F7DC84" mask="url(#mask-4)"></path>
                    <path d="M97.8347854,135.956501 C92.3182381,135.956501 87.8303361,131.44181 87.8303361,125.891883 L87.8303361,63.5805021 L149.89597,96.4644377 L211.961604,63.5805021 L211.961604,125.891883 C211.961604,131.44181 207.473702,135.956501 201.957155,135.956501 L97.8347854,135.956501 Z" id="Fill-21" fill="#F6C73B" mask="url(#mask-4)"></path>
                    <path d="M213.304617,61.3419791 L209.367296,63.4282112 L149.896104,94.937386 L90.4249128,63.4282112 L86.4875913,61.3419791 L86.4875913,65.8183947 L86.4875913,125.892244 C86.4875913,132.186514 91.5779984,137.307306 97.8349197,137.307306 L201.957289,137.307306 C208.21421,137.307306 213.304617,132.186514 213.304617,125.892244 L213.304617,65.8183947 L213.304617,61.3419791 Z M210.618859,65.8183947 L210.618859,125.892244 C210.618859,130.684769 206.720929,134.605516 201.957289,134.605516 L97.8349197,134.605516 C93.0708323,134.605516 89.1733495,130.684769 89.1733495,125.892244 L89.1733495,65.8183947 L149.896104,97.9913092 L210.618859,65.8183947 L210.618859,65.8183947 Z" id="Fill-22" fill="#F48F3D" mask="url(#mask-4)"></path>
                    <path d="M91.2621084,125.892199 L91.2621084,66.9292356 L89.1730362,65.8183497 L89.1730362,125.892199 C89.1730362,130.684724 93.0709666,134.605471 97.835054,134.605471 L99.9236786,134.605471 C95.1600388,134.605471 91.2621084,130.684724 91.2621084,125.892199" id="Fill-23" fill="#F7DC84" mask="url(#mask-4)"></path>
                    <path d="M208.529921,125.892199 L208.529921,66.9251829 L210.618993,65.8183497 L210.618993,125.892199 C210.618993,130.684724 206.721063,134.605471 201.956976,134.605471 L199.868351,134.605471 C204.631991,134.605471 208.529921,130.684724 208.529921,125.892199" id="Fill-24" fill="#F7DC84" mask="url(#mask-4)"></path>
                    <path d="M38.7354372,56.8585388 C37.8504799,56.8585388 37.130249,57.5826185 37.130249,58.4733086 C37.130249,59.3635484 37.8504799,60.0880784 38.7354372,60.0880784 C39.6203945,60.0880784 40.3406253,59.3635484 40.3406253,58.4733086 C40.3406253,57.5826185 39.6203945,56.8585388 38.7354372,56.8585388 M38.7354372,62.7898683 C36.3692842,62.7898683 34.4444908,60.8535855 34.4444908,58.4733086 C34.4444908,56.0930316 36.3692842,54.1567488 38.7354372,54.1567488 C41.1015902,54.1567488 43.0263835,56.0930316 43.0263835,58.4733086 C43.0263835,60.8535855 41.1015902,62.7898683 38.7354372,62.7898683" id="Fill-25" fill="#33AF5A" mask="url(#mask-4)"></path>
                    <path d="M258.911433,87.172757 C258.026475,87.172757 257.306244,87.8968367 257.306244,88.7875267 C257.306244,89.6777665 258.026475,90.4022965 258.911433,90.4022965 C259.79639,90.4022965 260.516621,89.6777665 260.516621,88.7875267 C260.516621,87.8968367 259.79639,87.172757 258.911433,87.172757 M258.911433,93.1040865 C256.54528,93.1040865 254.620486,91.1678037 254.620486,88.7875267 C254.620486,86.4072498 256.54528,84.470967 258.911433,84.470967 C261.277586,84.470967 263.202379,86.4072498 263.202379,88.7875267 C263.202379,91.1678037 261.277586,93.1040865 258.911433,93.1040865" id="Fill-26" fill="#33AF5A" mask="url(#mask-4)"></path>
                    <path d="M233.234778,74.5490037 C233.009175,74.4985703 232.778647,74.4647979 232.549462,74.4476866 L232.740151,71.7531014 C233.100938,71.7792187 233.463963,71.8323539 233.818483,71.9116064 L233.234778,74.5490037 Z M231.173907,74.5548576 L230.570506,71.9224136 C230.924131,71.840009 231.287156,71.784172 231.649733,71.7562535 L231.856537,74.4499381 C231.626905,74.4674997 231.397272,74.5030733 231.173907,74.5548576 L231.173907,74.5548576 Z M234.514542,75.0497354 C234.315796,74.9344591 234.106755,74.8340426 233.893237,74.7502871 L234.866377,72.2322188 C235.205677,72.3650569 235.537816,72.5249128 235.85384,72.7077339 L234.514542,75.0497354 Z M229.895038,75.064145 L228.544549,72.7288979 C228.858335,72.5451762 229.188684,72.3835191 229.526642,72.2493302 L230.515896,74.7610942 C230.302378,74.8462006 230.093337,74.9484183 229.895038,75.064145 L229.895038,75.064145 Z M235.596903,75.9120567 C235.439338,75.7422943 235.267897,75.5837893 235.087952,75.4401441 L236.756255,73.3228414 C237.04005,73.5493414 237.309969,73.799257 237.558401,74.0662839 L235.596903,75.9120567 Z M228.820735,75.9318699 L226.846703,74.0991557 C227.092897,73.8312282 227.361025,73.5795114 227.644373,73.3507599 L229.326105,75.4572554 C229.146607,75.6022515 228.976061,75.7621074 228.820735,75.9318699 L228.820735,75.9318699 Z M236.377563,77.053563 C236.277742,76.8473264 236.160912,76.6451424 236.030205,76.4542159 L238.242375,74.922301 C238.449178,75.2249015 238.634495,75.5446133 238.792955,75.8719802 L236.377563,77.053563 Z M228.044998,77.0796803 L225.62334,75.9107058 C225.780904,75.5810875 225.963983,75.2604751 226.168549,74.9583249 L228.389671,76.4771811 C228.260307,76.6685579 228.144371,76.8711922 228.044998,77.0796803 L228.044998,77.0796803 Z M236.787589,78.3729371 C236.753122,78.1455364 236.700749,77.9185861 236.63271,77.6988405 L239.195819,76.8923562 C239.304592,77.2417877 239.38785,77.6024766 239.442461,77.9649668 L236.787589,78.3729371 Z M227.643477,78.4017562 L224.98592,78.0095463 C225.03874,77.6475065 225.119312,77.2868175 225.2254,76.9364854 L227.794775,77.7254081 C227.727631,77.9460543 227.676602,78.1739052 227.643477,78.4017562 L227.643477,78.4017562 Z M239.446937,80.1813351 L236.790275,79.7819205 C236.824294,79.5536193 236.841752,79.3203647 236.841752,79.0875605 L239.173437,79.0663965 L239.527062,79.0677474 C239.52751,79.453653 239.500205,79.8210965 239.446937,80.1813351 L239.446937,80.1813351 Z M224.990396,80.196195 C224.936233,79.8382078 224.90848,79.4707644 224.907585,79.1037712 L227.593343,79.0961162 C227.593791,79.3302713 227.611696,79.5644264 227.646163,79.7918271 L224.990396,80.196195 Z M238.805489,82.2765732 L236.38562,81.1053473 C236.485441,80.8955083 236.57049,80.6775639 236.638082,80.4578183 L239.204324,81.2539457 C239.097789,81.6020263 238.963501,81.9465046 238.805489,82.2765732 L238.805489,82.2765732 Z M225.636321,82.2914331 C225.477861,81.962265 225.342678,81.6177868 225.234352,81.2674547 L227.800147,80.4681752 C227.867738,80.688371 227.953235,80.9049645 228.053056,81.1121018 L225.636321,82.2914331 Z M237.578097,84.0867725 L235.608541,82.2504559 C235.76521,82.0802432 235.910241,81.8965214 236.040053,81.705595 L238.258041,83.2294045 C238.053476,83.5302038 237.824739,83.818845 237.578097,84.0867725 L237.578097,84.0867725 Z M226.866846,84.0975796 C226.618413,83.8292018 226.388781,83.5405606 226.183768,83.239311 L228.400861,81.7141506 C228.529778,81.9041765 228.674809,82.0865473 228.832373,82.2558595 L226.866846,84.0975796 Z M235.878012,85.4543285 L234.531104,83.1163796 C234.730298,83.0006529 234.92233,82.8687155 235.10138,82.7241698 L236.779084,84.8342677 C236.495736,85.0621187 236.192693,85.2710571 235.878012,85.4543285 L235.878012,85.4543285 Z M228.569616,85.4606327 C228.254487,85.2778116 227.950549,85.0697737 227.666754,84.8419228 L229.340877,82.7295733 C229.519927,82.8732185 229.711959,83.0047056 229.911153,83.1204323 L228.569616,85.4606327 Z M233.849817,86.2572104 L233.251788,83.6229652 C233.475601,83.5716312 233.697176,83.5027356 233.911142,83.4180795 L234.894129,85.9325453 C234.555724,86.0662839 234.204337,86.1757064 233.849817,86.2572104 L233.849817,86.2572104 Z M230.60184,86.2603625 C230.24732,86.1797591 229.895038,86.0712372 229.554842,85.9374986 L230.532906,83.4212316 C230.747319,83.5058877 230.968894,83.5738827 231.191812,83.6243161 L230.60184,86.2603625 Z M232.217771,86.4409321 C232.036035,86.4409321 231.855642,86.4346279 231.677486,86.4206687 L231.879366,83.7269841 C232.10676,83.7436452 232.340421,83.7436452 232.567815,83.7260835 L232.771485,86.4197681 C232.588854,86.4341776 232.403984,86.4409321 232.217771,86.4409321 L232.217771,86.4409321 Z" id="Fill-27" fill="#478FCE" mask="url(#mask-4)"></path>
                    <path d="M80.6665237,47.0473939 L80.2667934,44.3753237 C80.6866669,44.3122819 81.1172835,44.3086795 81.5362618,44.3649668 L81.1795036,47.0428909 C81.0134342,47.020376 80.8379646,47.0212766 80.6665237,47.0473939 L80.6665237,47.0473939 Z M82.0989281,47.4544636 C81.9691165,47.3432399 81.8240855,47.2518293 81.6683116,47.1820331 L82.7623104,44.713948 C83.152193,44.889114 83.5143227,45.1187662 83.8397471,45.3975008 L82.0989281,47.4544636 Z M79.7547088,47.4756276 L77.9812132,45.4465834 C78.301266,45.1633457 78.6593671,44.92829 79.045221,44.7468198 L80.1826396,47.1941912 C80.0273133,47.2671395 79.8836252,47.3617021 79.7547088,47.4756276 L79.7547088,47.4756276 Z M82.6548801,48.3023753 C82.6056412,48.1393673 82.5326781,47.9840144 82.4386765,47.8408195 L84.680837,46.3534842 C84.9167361,46.7128222 85.0993677,47.1036812 85.2238078,47.5143533 L82.6548801,48.3023753 Z M79.2148714,48.3325453 L76.6325149,47.5891028 C76.749793,47.1766295 76.9257102,46.7830688 77.1548949,46.4192277 L79.4230177,47.8660362 C79.3317019,48.0114826 79.2614246,48.1681864 79.2148714,48.3325453 L79.2148714,48.3325453 Z M85.2381318,50.0977147 L82.6611468,49.3380615 C82.7085952,49.1750535 82.7327671,49.0039401 82.7327671,48.8305753 L85.4180776,48.769785 L85.4185253,48.8305753 C85.4185253,49.2610605 85.3576481,49.687493 85.2381318,50.0977147 L85.2381318,50.0977147 Z M76.6472866,50.1224811 C76.5255322,49.7127097 76.4624169,49.2871778 76.4601788,48.8571429 L79.145937,48.8409321 C79.1468322,49.014297 79.1718993,49.18496 79.2206906,49.3484183 L76.6472866,50.1224811 Z M83.8777953,52.2307779 L82.1154903,50.1918271 C82.2448543,50.0783519 82.3576562,49.9477654 82.4498672,49.8032196 L84.7094851,51.2630868 C84.4798528,51.6237758 84.1996387,51.9493414 83.8777953,52.2307779 L83.8777953,52.2307779 Z M78.0201567,52.2478892 C77.6978657,51.9691546 77.4163087,51.6453901 77.183543,51.2865023 L79.4337607,49.8108747 C79.5277623,49.9563211 79.6410117,50.0864573 79.7708234,50.1985816 L78.0201567,52.2478892 Z M81.5850531,53.2894292 L81.2027801,50.6151075 C81.3697448,50.5907914 81.5322331,50.5426095 81.6862166,50.4714623 L82.8102064,52.9251379 C82.4207715,53.1057075 82.0085076,53.2281887 81.5850531,53.2894292 L81.5850531,53.2894292 Z M80.3173752,53.2934819 C79.8939206,53.2340426 79.4821044,53.1142632 79.0926694,52.9363954 L80.2009923,50.475515 C80.3558711,50.5462119 80.5197023,50.5939435 80.6880098,50.617359 L80.3173752,53.2934819 Z" id="Fill-28" fill="#F48F3D" mask="url(#mask-4)"></path>
                    <path d="M80.9392177,81.1047169 C80.9392177,81.9719914 80.240473,82.6749071 79.3783446,82.6749071 C78.5162162,82.6749071 77.8174715,81.9719914 77.8174715,81.1047169 C77.8174715,80.2374423 78.5162162,79.5345266 79.3783446,79.5345266 C80.240473,79.5345266 80.9392177,80.2374423 80.9392177,81.1047169" id="Fill-29" fill="#F48F3D" mask="url(#mask-4)"></path>
                    <path d="M67.9747496,65.8965214 C67.9747496,66.5021727 67.4863892,66.9934482 66.8843317,66.9934482 C66.2822743,66.9934482 65.7939139,66.5021727 65.7939139,65.8965214 C65.7939139,65.2908702 66.2822743,64.7995947 66.8843317,64.7995947 C67.4863892,64.7995947 67.9747496,65.2908702 67.9747496,65.8965214" id="Fill-30" fill="#F2714C" mask="url(#mask-4)"></path>
                    <path d="M227.594597,100.692514 C227.594597,101.823213 226.683229,102.74002 225.55924,102.74002 C224.43525,102.74002 223.52433,101.823213 223.52433,100.692514 C223.52433,99.5618147 224.43525,98.6450073 225.55924,98.6450073 C226.683229,98.6450073 227.594597,99.5618147 227.594597,100.692514" id="Fill-31" fill="#F6C73B" mask="url(#mask-4)"></path>
                    <path d="M254.423083,67.4728808 C254.423083,68.1938084 253.842064,68.7778453 253.125862,68.7778453 C252.409212,68.7778453 251.828193,68.1938084 251.828193,67.4728808 C251.828193,66.7519532 252.409212,66.1679162 253.125862,66.1679162 C253.842064,66.1679162 254.423083,66.7519532 254.423083,67.4728808" id="Fill-32" fill="#F48F3D" mask="url(#mask-4)"></path>
                    <path d="M21.3874535,64.2589666 C21.3874535,65.1631656 20.6587178,65.8967016 19.7594364,65.8967016 C18.8606027,65.8967016 18.131867,65.1631656 18.131867,64.2589666 C18.131867,63.3547675 18.8606027,62.6212316 19.7594364,62.6212316 C20.6587178,62.6212316 21.3874535,63.3547675 21.3874535,64.2589666" id="Fill-33" fill="#F2714C" mask="url(#mask-4)"></path>
                    <path d="M76.0105829,74.9359901 L21.5492257,74.9359901 C20.8075088,74.9359901 20.2063466,74.3312394 20.2063466,73.5850951 C20.2063466,72.8389508 20.8075088,72.2342002 21.5492257,72.2342002 L76.0105829,72.2342002 C76.7522997,72.2342002 77.353462,72.8389508 77.353462,73.5850951 C77.353462,74.3312394 76.7522997,74.9359901 76.0105829,74.9359901" id="Fill-34" fill="#F48F3D" mask="url(#mask-4)"></path>
                    <path d="M15.2072553,74.9359901 L10.0599997,74.9359901 C9.31873047,74.9359901 8.71712063,74.3312394 8.71712063,73.5850951 C8.71712063,72.8389508 9.31873047,72.2342002 10.0599997,72.2342002 L15.2072553,72.2342002 C15.9489722,72.2342002 16.5501344,72.8389508 16.5501344,73.5850951 C16.5501344,74.3312394 15.9489722,74.9359901 15.2072553,74.9359901" id="Fill-35" fill="#F48F3D" mask="url(#mask-4)"></path>
                    <path d="M3.5058097,74.9478329 L1.3428791,74.9478329 C0.601162211,74.9478329 0,74.3430823 0,73.596938 C0,72.8507937 0.601162211,72.246043 1.3428791,72.246043 L3.5058097,72.246043 C4.24752659,72.246043 4.84868881,72.8507937 4.84868881,73.596938 C4.84868881,74.3430823 4.24752659,74.9478329 3.5058097,74.9478329" id="Fill-36" fill="#F48F3D" mask="url(#mask-4)"></path>
                    <path d="M76.1596424,90.0596645 L41.6924122,90.0596645 C40.9506953,90.0596645 40.3495331,89.4549139 40.3495331,88.7087696 C40.3495331,87.9626252 40.9506953,87.3578746 41.6924122,87.3578746 L76.1596424,87.3578746 C76.9013593,87.3578746 77.5025215,87.9626252 77.5025215,88.7087696 C77.5025215,89.4549139 76.9013593,90.0596645 76.1596424,90.0596645" id="Fill-37" fill="#F48F3D" mask="url(#mask-4)"></path>
                    <path d="M203.38741,148.148148 L96.4047087,148.148148 C95.4159021,148.148148 94.6142032,147.341664 94.6142032,146.346955 C94.6142032,145.352246 95.4159021,144.545762 96.4047087,144.545762 L203.38741,144.545762 C204.376217,144.545762 205.177916,145.352246 205.177916,146.346955 C205.177916,147.341664 204.376217,148.148148 203.38741,148.148148" id="Fill-38" fill="#F7DC84" mask="url(#mask-4)"></path>
                    <path d="M99.0469576,137.302308 L82.1490623,137.302308 C81.4073454,137.302308 80.8061832,136.697557 80.8061832,135.951413 C80.8061832,135.205268 81.4073454,134.600518 82.1490623,134.600518 L99.0469576,134.600518 C99.7886745,134.600518 100.389837,135.205268 100.389837,135.951413 C100.389837,136.697557 99.7886745,137.302308 99.0469576,137.302308" id="Fill-39" fill="#F48F3D" mask="url(#mask-4)"></path>
                    <path d="M77.6262455,137.288664 L75.0264315,137.288664 C74.2847146,137.288664 73.6835524,136.683913 73.6835524,135.937769 C73.6835524,135.191624 74.2847146,134.586874 75.0264315,134.586874 L77.6262455,134.586874 C78.3679624,134.586874 78.9691246,135.191624 78.9691246,135.937769 C78.9691246,136.683913 78.3679624,137.288664 77.6262455,137.288664" id="Fill-40" fill="#F48F3D" mask="url(#mask-4)"></path>
                    <path d="M70.6252796,137.302308 L70.0003932,137.302308 C69.2586763,137.302308 68.6575141,136.697557 68.6575141,135.951413 C68.6575141,135.205268 69.2586763,134.600518 70.0003932,134.600518 L70.6252796,134.600518 C71.3669965,134.600518 71.9681587,135.205268 71.9681587,135.951413 C71.9681587,136.697557 71.3669965,137.302308 70.6252796,137.302308" id="Fill-41" fill="#F48F3D" mask="url(#mask-4)"></path>
                    <path d="M76.1596424,59.8241585 L54.1887975,59.8241585 C53.4470806,59.8241585 52.8459184,59.2194079 52.8459184,58.4732635 C52.8459184,57.7271192 53.4470806,57.1223686 54.1887975,57.1223686 L76.1596424,57.1223686 C76.9013593,57.1223686 77.5025215,57.7271192 77.5025215,58.4732635 C77.5025215,59.2194079 76.9013593,59.8241585 76.1596424,59.8241585" id="Fill-42" fill="#F48F3D" mask="url(#mask-4)"></path>
                    <path d="M107.276434,17.3417539 L97.228565,17.3417539 C96.4868481,17.3417539 95.8856859,16.7370033 95.8856859,15.9908589 C95.8856859,15.2447146 96.4868481,14.639964 97.228565,14.639964 L107.276434,14.639964 C108.018151,14.639964 108.619313,15.2447146 108.619313,15.9908589 C108.619313,16.7370033 108.018151,17.3417539 107.276434,17.3417539" id="Fill-43" fill="#F48F3D" mask="url(#mask-4)"></path>
                    <path d="M92.7541814,17.3417539 L89.8213334,17.3417539 C89.0800642,17.3417539 88.4784543,16.7370033 88.4784543,15.9908589 C88.4784543,15.2447146 89.0800642,14.639964 89.8213334,14.639964 L92.7541814,14.639964 C93.4958983,14.639964 94.0970605,15.2447146 94.0970605,15.9908589 C94.0970605,16.7370033 93.4958983,17.3417539 92.7541814,17.3417539" id="Fill-44" fill="#F48F3D" mask="url(#mask-4)"></path>
                    <path d="M97.2208211,135.956501 C95.2812561,135.956501 93.5471515,134.786176 92.8027489,132.975977 C92.0583462,131.166228 92.4464383,129.188067 93.8157273,127.812856 C93.8551184,127.77368 93.8551184,127.77368 94.5713206,127.153169 C106.910589,116.460385 135.914092,91.3017674 138.720262,88.6382528 C142.256062,85.2839806 146.433759,83.2810537 149.896149,83.2810537 C153.361225,83.2810537 157.538922,85.2839806 161.072037,88.6387031 C163.920283,91.3440955 192.905881,116.48335 205.235749,127.166228 C205.936732,127.77368 205.936732,127.77368 205.969856,127.806552 C207.345412,129.187617 207.733504,131.165777 206.989102,132.975977 C206.244699,134.786176 204.510594,135.956501 202.571477,135.956501 L97.2208211,135.956501 Z" id="Fill-45" fill="#F6C73B" mask="url(#mask-4)"></path>
                    <path d="M149.89606,81.9301587 C146.042444,81.9301587 141.633324,84.0168412 137.798957,87.6557019 C135.866554,89.489767 119.38137,103.870494 93.7014931,126.124237 C92.9441093,126.780322 92.9441093,126.780322 92.8783082,126.845615 C91.133013,128.598176 90.6204808,131.202702 91.561839,133.492018 C92.5148356,135.809704 94.7359576,137.307396 97.2207316,137.307396 L202.571388,137.307396 C205.055714,137.307396 207.276836,135.809704 208.23028,133.492018 C209.171638,131.202702 208.659106,128.598176 206.925002,126.856873 C206.84801,126.780322 206.84801,126.780322 206.106293,126.137746 C180.445664,103.904717 163.955108,89.5194867 161.994057,87.6566025 C158.161928,84.0172915 153.752361,81.9301587 149.89606,81.9301587 M149.89606,84.6319487 C152.981548,84.6319487 156.80383,86.4430485 160.150284,89.6212541 C163.585817,92.8841157 205.012294,128.75398 205.027513,128.768839 C207.166272,130.916312 205.592865,134.605606 202.571388,134.605606 L97.2207316,134.605606 C94.1992536,134.605606 92.6258469,130.916312 94.7646057,128.768839 C94.779825,128.75398 136.253751,92.8363841 139.641835,89.6212541 C142.989185,86.4443994 146.810571,84.6319487 149.89606,84.6319487" id="Fill-46" fill="#F48F3D" mask="url(#mask-4)"></path>
                    <path d="M202.571343,132.804458 L97.2206868,132.804458 C95.526421,132.804458 94.2882865,131.644039 93.9037754,130.246313 C93.342452,132.27986 94.8209619,134.605651 97.2206868,134.605651 L202.571343,134.605651 C204.971068,134.605651 206.449578,132.27986 205.888254,130.246313 C205.503743,131.644039 204.265609,132.804458 202.571343,132.804458" id="Fill-47" fill="#F7DC84" mask="url(#mask-4)"></path>
                    <path d="M73.3493098,107.078194 C72.8246917,107.078194 72.3260359,106.767038 72.11028,106.249645 L69.5552287,100.125588 C69.2683002,99.4370821 69.5901436,98.6454576 70.2736691,98.3568164 C70.9580898,98.0677249 71.7450169,98.3919397 72.0319454,99.0795452 L74.5869967,105.204053 C74.8739252,105.892109 74.5525295,106.683733 73.8685564,106.972824 C73.6984584,107.044422 73.5225412,107.078194 73.3493098,107.078194" id="Fill-48" fill="#478FCE" mask="url(#mask-4)"></path>
                    <path d="M69.0277906,105.301227 C68.5031725,105.301227 68.0045167,104.990071 67.7887608,104.472678 C67.5018323,103.784622 67.8236757,102.992998 68.5072011,102.703906 L74.5953673,100.133604 C75.2802357,99.8440617 76.0667152,100.169177 76.3536437,100.856783 C76.6405722,101.544838 76.3187288,102.336463 75.6352034,102.625554 L69.5470372,105.195857 C69.3769392,105.267455 69.201022,105.301227 69.0277906,105.301227" id="Fill-49" fill="#478FCE" mask="url(#mask-4)"></path>
                    <path d="M232.218219,59.9213329 C231.693601,59.9213329 231.194945,59.6101767 230.979189,59.092784 L228.424585,52.9687268 C228.137657,52.2802206 228.4595,51.4885962 229.143026,51.199955 C229.826551,50.9113137 230.613926,51.2346279 230.900855,51.9226838 L233.455906,58.0471913 C233.742834,58.7352471 233.420991,59.5268716 232.737018,59.8159631 C232.567367,59.8875605 232.39145,59.9213329 232.218219,59.9213329" id="Fill-50" fill="#F4896A" mask="url(#mask-4)"></path>
                    <path d="M227.8967,58.1443206 C227.372082,58.1443206 226.873426,57.8331645 226.65767,57.3157717 C226.370741,56.6277159 226.692585,55.8360914 227.37611,55.5469999 L233.464276,52.9766971 C234.148697,52.6880558 234.935624,53.0122706 235.222553,53.6998762 C235.509481,54.387932 235.187638,55.1795565 234.504112,55.468648 L228.415946,58.0389508 C228.245848,58.1105482 228.069931,58.1443206 227.8967,58.1443206" id="Fill-51" fill="#F4896A" mask="url(#mask-4)"></path>
                    <path d="M26.0668053,87.7399977 C25.9732514,87.7399977 25.8779069,87.7251379 25.7839054,87.6931667 C25.314793,87.5364629 25.0609888,87.0262749 25.2172104,86.5543623 L26.2601799,83.4036249 C26.4159538,82.931262 26.9222193,82.6745919 27.3922269,82.8335472 C27.8613394,82.9907013 28.1151435,83.5008893 27.9589219,83.972802 L26.9159525,87.1235393 C26.7910647,87.5008893 26.4414685,87.7399977 26.0668053,87.7399977" id="Fill-52" fill="#F7DC84" mask="url(#mask-4)"></path>
                    <path d="M28.1543556,86.6890015 C28.0608017,86.6890015 27.9650096,86.6741416 27.8714557,86.6421704 L24.739414,85.5929753 C24.2703016,85.4362715 24.0164975,84.9260835 24.1727191,84.4541709 C24.3289407,83.9813576 24.8356537,83.7251379 25.3047661,83.8840932 L28.4368078,84.9337386 C28.9059203,85.0904424 29.1597244,85.6006304 29.0035028,86.0725431 C28.8786151,86.4503434 28.5290189,86.6890015 28.1543556,86.6890015" id="Fill-53" fill="#F7DC84" mask="url(#mask-4)"></path>
                    <path d="M296.814956,74.30188 C296.721402,74.30188 296.62561,74.2870202 296.532056,74.255049 C296.062944,74.0983452 295.80914,73.5881572 295.965361,73.1162445 L297.008331,69.9650569 C297.164105,69.4931442 297.672161,69.2360239 298.140378,69.3954295 C298.60949,69.5521333 298.863294,70.0623213 298.707073,70.5342339 L297.664103,73.6854216 C297.539216,74.0627716 297.189619,74.30188 296.814956,74.30188" id="Fill-54" fill="#F7DC84" mask="url(#mask-4)"></path>
                    <path d="M298.902506,73.2508837 C298.808953,73.2508837 298.71316,73.2360239 298.619607,73.2040527 L295.487565,72.1548576 C295.018452,71.9981538 294.764648,71.4879658 294.92087,71.0160531 C295.077092,70.5436902 295.583357,70.2865699 296.052917,70.4459755 L299.184959,71.4956208 C299.654071,71.6523247 299.907875,72.1625127 299.751654,72.6344253 C299.626766,73.0122256 299.27717,73.2508837 298.902506,73.2508837" id="Fill-55" fill="#F7DC84" mask="url(#mask-4)"></path>
                    <path d="M275.333949,73.5089947 L275.031353,74.7581223 L276.833049,74.5725993 L275.333949,73.5089947 Z M273.86081,76.6844985 C273.603425,76.6844985 273.356783,76.5728245 273.186237,76.3751435 C272.995101,76.1549477 272.922138,75.8545987 272.99152,75.5704604 L273.906021,71.7974108 C273.976298,71.507869 274.183997,71.2719126 274.461525,71.1674434 C274.738606,71.0634245 275.049706,71.1030508 275.291872,71.2746144 L279.82006,74.4879433 C280.125341,74.7045368 280.264553,75.0890915 280.170104,75.452032 C280.075207,75.8154227 279.766345,76.0819993 279.395263,76.1198244 L273.952126,76.6795452 C273.921687,76.6826973 273.891249,76.6844985 273.86081,76.6844985 L273.86081,76.6844985 Z" id="Fill-56" fill="#F6C73B" mask="url(#mask-4)"></path>
                </g>
            </g>
        </g>
    </g>
</svg>